<svg width="100%" height="100%" id="svg" viewBox="0 0 1440 500" xmlns="http://www.w3.org/2000/svg" class="transition duration-300 ease-in-out delay-150"><path d="M 0,500 C 0,500 0,250 0,250 C 83.88045345242185,262.780487804878 167.7609069048437,275.5609756097561 243,267 C 318.2390930951563,258.4390243902439 384.8368258330471,228.53658536585368 444,241 C 503.1631741669529,253.46341463414632 554.8917897629681,308.2926829268293 615,315 C 675.1082102370319,321.7073170731707 743.5960151150807,280.2926829268293 815,280 C 886.4039848849193,279.7073170731707 960.7241497767093,320.5365853658537 1029,335 C 1097.2758502232907,349.4634146341463 1159.5073857780828,337.5609756097561 1227,319 C 1294.4926142219172,300.4390243902439 1367.2463071109587,275.219512195122 1440,250 C 1440,250 1440,500 1440,500 Z" stroke="none" stroke-width="0" fill="#00d084ff" class="transition-all duration-300 ease-in-out delay-150 path-0" transform="rotate(-180 720 250)"></path></svg>