<svg width="100%" height="100%" id="svg" viewBox="0 0 1440 500" xmlns="http://www.w3.org/2000/svg" class="transition duration-300 ease-in-out delay-150"><path d="M 0,500 C 0,500 0,250 0,250 C 58.32304846466889,214.66188185966212 116.64609692933777,179.3237637193242 172,182 C 227.35390307066223,184.6762362806758 279.7386607473178,225.3668269823653 331,230 C 382.2613392526822,234.6331730176347 432.39926008139105,203.20892835121467 476,185 C 519.600739918609,166.79107164878533 556.6642989271179,161.79745961277592 614,158 C 671.3357010728821,154.20254038722408 748.943544210137,151.6012331976816 811,166 C 873.056455789863,180.3987668023184 919.5615242323342,211.79760759649767 961,223 C 1002.4384757676658,234.20239240350233 1038.8103588605252,225.20833641632757 1095,233 C 1151.1896411394748,240.79166358367243 1227.1970403255643,265.36904673819214 1288,271 C 1348.8029596744357,276.63095326180786 1394.4014798372177,263.31547663090396 1440,250 C 1440,250 1440,500 1440,500 Z" stroke="none" stroke-width="0" fill="#cdcdffff" class="transition-all duration-300 ease-in-out delay-150 path-0"></path></svg>